<?xml version="1.0" encoding="UTF-8" standalone="no"?>
<!-- Created with Inkscape (http://www.inkscape.org/) -->

<svg
   xmlns:dc="http://purl.org/dc/elements/1.1/"
   xmlns:cc="http://creativecommons.org/ns#"
   xmlns:rdf="http://www.w3.org/1999/02/22-rdf-syntax-ns#"
   xmlns:svg="http://www.w3.org/2000/svg"
   xmlns="http://www.w3.org/2000/svg"
   xmlns:sodipodi="http://sodipodi.sourceforge.net/DTD/sodipodi-0.dtd"
   xmlns:inkscape="http://www.inkscape.org/namespaces/inkscape"
   width="900"
   height="600"
   id="svg2"
   version="1.1"
   inkscape:version="0.48.5 r10040"
   sodipodi:docname="magpie_minimal.svg"
   inkscape:export-filename="/Users/maggiehewitt/Desktop/Animations/Cup/magpie_minimal.png"
   inkscape:export-xdpi="90"
   inkscape:export-ydpi="90">
  <defs
     id="defs4" />
  <sodipodi:namedview
     id="base"
     pagecolor="#ffffff"
     bordercolor="#666666"
     borderopacity="1.0"
     inkscape:pageopacity="0"
     inkscape:pageshadow="2"
     inkscape:zoom="0.98994949"
     inkscape:cx="482.11101"
     inkscape:cy="265.9854"
     inkscape:document-units="px"
     inkscape:current-layer="g3896"
     showgrid="false"
     inkscape:window-width="1437"
     inkscape:window-height="852"
     inkscape:window-x="0"
     inkscape:window-y="452"
     inkscape:window-maximized="0" />
  <metadata
     id="metadata7">
    <rdf:RDF>
      <cc:Work
         rdf:about="">
        <dc:format>image/svg+xml</dc:format>
        <dc:type
           rdf:resource="http://purl.org/dc/dcmitype/StillImage" />
        <dc:title></dc:title>
      </cc:Work>
    </rdf:RDF>
  </metadata>
  <g
     inkscape:label="Layer 1"
     inkscape:groupmode="layer"
     id="layer1"
     transform="translate(0,-452.36218)">
    <g
       id="g4362"
       transform="matrix(0.51180886,0,0,0.51180886,22.549861,613.43479)">
      <g
         id="g4334" />
      <g
         id="g3896"
         transform="matrix(2.4183284,0,0,2.4183284,-202.894,-950.01502)">
        <g
           id="g3012"
           transform="matrix(1.0002305,0,0,1,-64.02906,37.917872)">
          <g
             id="g3032"
             transform="translate(-2.9605365,0)">
            <path
               sodipodi:nodetypes="csccc"
               inkscape:connector-curvature="0"
               id="path4384"
               d="m 528.55475,539.68712 c 100.13352,11.6592 244.77832,47.4273 265.47832,35.83532 l 15.41852,-13.79549 -252.86668,-34.53777 z"
               style="fill:#000000;stroke:#000000;stroke-width:0.80784279px;stroke-linecap:butt;stroke-linejoin:miter;stroke-opacity:1" />
            <path
               style="fill:#163459;fill-opacity:1;stroke:none"
               d="m 582.31043,513.68706 c 105.11027,11.23897 140.56483,15.54168 263.93094,30.84216 -5.26289,9.23621 -11.56134,18.17592 -37.76382,21.41682 -103.54984,-4.4307 -143.81455,-7.15763 -254.50761,-38.70427 z"
               id="path3765"
               inkscape:connector-curvature="0"
               sodipodi:nodetypes="ccccc" />
          </g>
          <path
             sodipodi:nodetypes="cccc"
             inkscape:connector-curvature="0"
             id="path2991"
             d="m 436.33067,571.70841 c 11.76628,-29.64122 21.46333,-22.75614 21.52138,-79.72301 42.39174,11.80857 84.37191,10.21518 119.24111,21.05956 -16.69192,-0.97975 -70.29709,40.24527 -140.76249,58.66345 z"
             style="fill:#000000;stroke:#000000;stroke-width:0.80784279px;stroke-linecap:butt;stroke-linejoin:miter;stroke-opacity:1" />
          <path
             sodipodi:nodetypes="scccssss"
             inkscape:connector-curvature="0"
             id="path2985"
             d="m 246.53627,265.17982 c 62.3647,7.56178 52.24506,53.75597 69.53837,84.49114 34.55983,34.44913 47.68965,29.80623 163.89923,93.57011 -137.2643,-6.86209 -205.93505,-158.88884 -240.77226,69.23495 -22.35148,-40.67785 -33.4281,-86.59725 -31.34673,-145.10827 0.52958,-14.88742 -29.95875,-38.49034 -29.95814,-46.0576 0.001,-14.00198 -3.87397,-12.73324 0.10272,-15.40149 4.57614,-3.07047 36.45675,-44.61858 68.53681,-40.72884 z"
             style="fill:#000000;stroke:#000000;stroke-width:0.80784279px;stroke-linecap:butt;stroke-linejoin:miter;stroke-opacity:1" />
          <path
             sodipodi:nodetypes="ccc"
             inkscape:connector-curvature="0"
             id="path2989"
             d="m 241.43112,515.4347 c 75.62425,-12.29252 114.74155,58.74117 190.68562,57.78896 -97.35242,9.83213 -170.09128,-31.25263 -190.68562,-57.78896 z"
             style="fill:#cbccd1;fill-opacity:1;stroke:none" />
          <path
             sodipodi:nodetypes="cccc"
             inkscape:connector-curvature="0"
             id="path2987"
             d="m 483.89192,444.42456 c -16.04132,28.07667 -131.65789,-6.3592 -221.79982,-17.80641 226.00138,79.7436 195.00817,64.65142 367.74178,85.26104 -98.20208,-51.4942 -142.59946,-70.60102 -145.94196,-67.45463 z"
             style="fill:#000080;stroke:none" />
          <path
             style="fill:#000000;fill-opacity:1;stroke:none"
             d="m 383.7713,576.91211 8.58632,29.79949 11.11166,0 c 0.18663,-10.43824 8.19599,-19.36125 3.03046,-29.79949 z"
             id="path3771"
             inkscape:connector-curvature="0"
             sodipodi:nodetypes="ccccc" />
          <g
             transform="matrix(0.80769212,0,0,1.1220167,104.39765,3.6993796)"
             id="g3787">
            <g
               id="g3781">
              <path
                 sodipodi:nodetypes="cccc"
                 inkscape:connector-curvature="0"
                 id="path3779"
                 d="m 94.285715,266.64789 c 10.858365,0.39468 21.122825,-0.10147 28.214285,-5.35714 2.0001,10.58339 6.61597,22.47465 -0.35714,28.57144 -18.42247,2.9523 -32.515827,-15.33842 -27.857145,-23.2143 z"
                 style="fill:#000000;stroke:none" />
              <path
                 sodipodi:nodetypes="ccsc"
                 inkscape:connector-curvature="0"
                 id="path3777"
                 d="m 94.285714,266.6479 c -17.044961,1.20376 -31.284301,5.36421 -46.428571,16.07142 2.607774,4.92135 76.457537,9.11594 75.000007,6.07143 C 115.4632,273.3462 93.251897,281.40454 94.285714,266.6479 z"
                 style="fill:#616977;fill-opacity:1;stroke:none" />
            </g>
            <path
               style="fill:#37363e;fill-opacity:1;stroke:none"
               d="m 48.210294,282.84187 c 18.767104,-3.72485 53.614586,4.93083 75.361136,5.94888 -0.18835,3.83224 -60.351409,-0.3843 -75.361136,-5.94888 z"
               id="path3785"
               inkscape:connector-curvature="0"
               sodipodi:nodetypes="ccc" />
          </g>
          <path
             style="fill:#333333;stroke:none"
             d="m 366.46163,601.35581 -19.87653,57.183 3.80342,0.55298 22.73337,-58.24752 z"
             id="path3795"
             inkscape:connector-curvature="0"
             sodipodi:nodetypes="ccccc" />
          <path
             style="fill:#666666;stroke:none"
             d="m 393.21429,606.0054 -25.08874,54.3863 7.80545,2.96054 24.2782,-56.87766 c -4.23161,-4.88326 -6.44707,-0.87257 -6.99491,-0.46918 z"
             id="path3797"
             inkscape:connector-curvature="0"
             sodipodi:nodetypes="ccccc" />
          <path
             style="fill:#333333;fill-opacity:1;stroke:none"
             d="m 339.83367,657.66801 c -10.99635,-3.80511 -16.1467,-6.79929 -32.66998,-0.55142 9.66484,0.24403 17.67637,-0.97212 19.93447,0.64543 -11.86461,-0.39024 -21.15436,0.45276 -28.72534,4.38549 15.72524,-2.57228 30.56965,-1.15257 44.14247,0.54 26.84463,0.2792 17.42099,1.24809 25.60603,4.2261 -5.8797,-3.34073 -7.84043,-9.50962 -19.31823,-6.18779 z"
             id="path3888"
             inkscape:connector-curvature="0"
             sodipodi:nodetypes="cccccccc" />
          <path
             sodipodi:nodetypes="cccccccc"
             inkscape:connector-curvature="0"
             id="path3890"
             d="m 366.08708,660.8965 c -10.42827,-3.04543 -15.31609,-6.17606 -33.23067,0.17822 22.52901,-1.29229 27.09182,0.71458 29.04149,1.68461 -11.47974,-1.78002 -32.27978,1.03447 -41.53058,7.05376 28.6284,-6.23875 39.62574,-3.62728 48.43848,-2.59888 27.21608,0.35141 20.12916,-2.3765 31.388,-0.60197 -5.96106,-4.20475 -13.37657,-6.04804 -25.01319,-1.86708 z"
             style="fill:#666666;fill-opacity:1;stroke:none" />
          <path
             sodipodi:nodetypes="ccccc"
             inkscape:connector-curvature="0"
             id="path3769"
             d="m 356.49718,573.58578 c 3.67556,0.97651 0.81473,-2.93237 5.05077,33.84011 l 18.18274,0.50508 c 0.36152,-9.73867 6.85543,-7.55094 -1.51522,-30.80965 z"
             style="fill:#000000;fill-opacity:1;stroke:none" />
          <path
             style="fill:#000000;stroke:none"
             d="m 556.08898,157.4162 c 18.53057,14.1255 81.46206,24.93886 130.75874,27.66191 -28.42057,-9.12125 -99.1962,-17.72214 -130.75874,-27.66191 z"
             id="path4386"
             inkscape:connector-curvature="0"
             transform="matrix(1.6066874,0,0,1.6066874,-474.34093,213.86285)"
             sodipodi:nodetypes="ccc" />
        </g>
      </g>
    </g>
  </g>
</svg>
